<svg xmlns="http://www.w3.org/2000/svg" xmlns:xlink="http://www.w3.org/1999/xlink" width="16" height="16" viewBox="0 0 16 16"><defs><path id="a" d="M0 0h16v16H0z"/></defs><clipPath id="b"><use xlink:href="#a" overflow="visible"/></clipPath><path clip-path="url(#b)" d="M8 .787c3.977 0 7.213 3.236 7.213 7.213S11.977 15.213 8 15.213.787 11.977.787 8 4.023.787 8 .787M8 0C3.582 0 0 3.582 0 8s3.582 8 8 8 8-3.582 8-8-3.582-8-8-8"/><path clip-path="url(#b)" d="M7.476 10.216c-.004-.138-.006-.242-.006-.31 0-.408.057-.76.172-1.056.085-.223.22-.448.41-.674.138-.166.386-.406.746-.724.36-.316.593-.57.7-.757.107-.19.16-.395.16-.617 0-.403-.156-.758-.472-1.063-.314-.307-.7-.46-1.158-.46-.442 0-.81.14-1.106.416s-.49.71-.582 1.298L5.274 6.14c.096-.786.38-1.39.856-1.808.474-.42 1.102-.628 1.882-.628.826 0 1.484.225 1.976.674.492.45.738.993.738 1.63 0 .37-.086.71-.26 1.022-.172.31-.51.69-1.014 1.135-.338.3-.56.52-.663.663-.105.143-.182.306-.23.49-.05.185-.08.484-.087.9l-.997-.002zm-.064.9h1.182v1.18H7.412v-1.18z"/></svg>