<svg xmlns="http://www.w3.org/2000/svg" xmlns:xlink="http://www.w3.org/1999/xlink" width="12" height="16" viewBox="0 0 12 16"><defs><path id="a" d="M0 3.25h-.75v13.5h13.5V3.25H0zm0 1.5h12L11.25 4v12l.75-.75H0l.75.75V4L0 4.75zm-20.75-21.5h53.5v53.5h-53.5v-53.5z"/></defs><clipPath id="b"><use xlink:href="#a" overflow="visible"/></clipPath><g clip-path="url(#b)"><defs><path id="c" d="M0 4h12v12H0z"/></defs><clipPath id="d"><use xlink:href="#c" overflow="visible"/></clipPath><g clip-path="url(#d)"><defs><path id="e" d="M-2 0h16v16H-2z"/></defs><clipPath id="f"><use xlink:href="#e" overflow="visible"/></clipPath><path clip-path="url(#f)" d="M0 4h12v12H0z"/></g></g><g><defs><path id="g" d="M0 4h12v12H0z"/></defs><clipPath id="h"><use xlink:href="#g" overflow="visible"/></clipPath><g clip-path="url(#h)"><defs><path id="i" d="M-2 0h16v16H-2z"/></defs><clipPath id="j"><use xlink:href="#i" overflow="visible"/></clipPath><path clip-path="url(#j)" fill="none" stroke="#000" stroke-width="3" stroke-miterlimit="10" d="M0 4h12v12H0z"/></g></g><g><defs><path id="k" d="M3 3c0-1.657 1.347-3 3-3 1.657 0 3 1.35 3 3v4c0 1.657-1.347 3-3 3-1.657 0-3-1.35-3-3V3z"/></defs><clipPath id="l"><use xlink:href="#k" overflow="visible"/></clipPath><g clip-path="url(#l)"><defs><path id="m" d="M-2 0h16v16H-2z"/></defs><clipPath id="n"><use xlink:href="#m" overflow="visible"/></clipPath><path clip-path="url(#n)" fill="none" stroke="#000" stroke-width="2" stroke-miterlimit="10" d="M3 3c0-1.657 1.347-3 3-3 1.657 0 3 1.35 3 3v4c0 1.657-1.347 3-3 3-1.657 0-3-1.35-3-3V3z"/></g></g></svg>